<svg xmlns="http://www.w3.org/2000/svg" version="1.1" xmlns:xlink="http://www.w3.org/1999/xlink" xmlns:svgjs="http://svgjs.com/svgjs" width="1440" height="560" preserveAspectRatio="none" viewBox="0 0 1440 560"><g mask="url(&quot;#SvgjsMask2276&quot;)" fill="none"><rect width="1440" height="560" x="0" y="0" fill="url(#SvgjsLinearGradient2277)"></rect><g transform="translate(14.4, 22.4)" stroke-linecap="round" stroke="url(#SvgjsLinearGradient2278)"><path d="M175.5 108.28 L175.5 451.72" stroke-width="24.75"></path><path d="M208.5 77.72 L208.5 482.27" stroke-width="24.75"></path><path d="M241.5 164.47 L241.5 395.53" stroke-width="24.75"></path><path d="M274.5 127.64 L274.5 432.36" stroke-width="24.75"></path><path d="M307.5 106.03 L307.5 453.97" stroke-width="24.75"></path><path d="M340.5 232.21 L340.5 327.79" stroke-width="24.75"></path><path d="M373.5 180.33 L373.5 379.67" stroke-width="24.75"></path><path d="M406.5 247.76 L406.5 312.24" stroke-width="24.75"></path><path d="M439.5 205.82 L439.5 354.18" stroke-width="24.75"></path><path d="M472.5 209.25 L472.5 350.75" stroke-width="24.75"></path><path d="M505.5 100.47 L505.5 459.52" stroke-width="24.75"></path><path d="M538.5 89.76 L538.5 470.24" stroke-width="24.75"></path><path d="M571.5 141.9 L571.5 418.1" stroke-width="24.75"></path><path d="M604.5 223.08 L604.5 336.92" stroke-width="24.75"></path><path d="M637.5 236.81 L637.5 323.19" stroke-width="24.75"></path><path d="M670.5 257.04 L670.5 302.96" stroke-width="24.75"></path><path d="M703.5 125.98 L703.5 434.02" stroke-width="24.75"></path><path d="M736.5 76.47 L736.5 483.53" stroke-width="24.75"></path><path d="M769.5 120.04 L769.5 439.96" stroke-width="24.75"></path><path d="M802.5 149.28 L802.5 410.72" stroke-width="24.75"></path><path d="M835.5 205.31 L835.5 354.69" stroke-width="24.75"></path><path d="M868.5 223.53 L868.5 336.47" stroke-width="24.75"></path><path d="M901.5 74.09 L901.5 485.9" stroke-width="24.75"></path><path d="M934.5 176.72 L934.5 383.28" stroke-width="24.75"></path><path d="M967.5 199.44 L967.5 360.56" stroke-width="24.75"></path><path d="M1000.5 212.49 L1000.5 347.51" stroke-width="24.75"></path><path d="M1033.5 236.41 L1033.5 323.58" stroke-width="24.75"></path><path d="M1066.5 174.72 L1066.5 385.28" stroke-width="24.75"></path><path d="M1099.5 77.28 L1099.5 482.72" stroke-width="24.75"></path><path d="M1132.5 103.24 L1132.5 456.76" stroke-width="24.75"></path><path d="M1165.5 129.99 L1165.5 430.01" stroke-width="24.75"></path><path d="M1198.5 89.23 L1198.5 470.77" stroke-width="24.75"></path><path d="M1231.5 223.37 L1231.5 336.63" stroke-width="24.75"></path><path d="M1264.5 185.33 L1264.5 374.67" stroke-width="24.75"></path></g></g><defs><mask id="SvgjsMask2276"><rect width="1440" height="560" fill="#ffffff"></rect></mask><linearGradient x1="15.28%" y1="-39.29%" x2="84.72%" y2="139.29%" gradientUnits="userSpaceOnUse" id="SvgjsLinearGradient2277"><stop stop-color="#0e2a47" offset="0"></stop><stop stop-color="rgba(220, 229, 241, 1)" offset="1"></stop></linearGradient><linearGradient x1="144" y1="280" x2="1296" y2="280" gradientUnits="userSpaceOnUse" id="SvgjsLinearGradient2278"><stop stop-color="#3a7cc3" offset="0"></stop><stop stop-color="rgba(17, 221, 137, 1)" offset="1"></stop></linearGradient></defs></svg>