<svg xmlns="http://www.w3.org/2000/svg" version="1.1" xmlns:xlink="http://www.w3.org/1999/xlink" xmlns:svgjs="http://svgjs.com/svgjs" width="1440" height="1024" preserveAspectRatio="none" viewBox="0 0 1440 1024"><g mask="url(&quot;#SvgjsMask1058&quot;)" fill="none"><path d="M 0,322 C 48,271 144,49.4 240,67 C 336,84.6 384,404.4 480,410 C 576,415.6 624,100.6 720,95 C 816,89.4 864,364.8 960,382 C 1056,399.2 1104,179 1200,181 C 1296,183 1392,349.8 1440,392L1440 1024L0 1024z" fill="#184a7e"></path><path d="M 0,687 C 72,722.8 216,872.2 360,866 C 504,859.8 576,633 720,656 C 864,679 936,980.6 1080,981 C 1224,981.4 1368,722.6 1440,658L1440 1024L0 1024z" fill="#2264ab"></path></g><defs><mask id="SvgjsMask1058"><rect width="1440" height="1024" fill="#ffffff"></rect></mask></defs></svg>